<svg xmlns="http://www.w3.org/2000/svg" width="96" height="96" viewBox="0 0 96 96">
  <path d="M 65.05 24.54 L 63.15 23.27 L 61.17 22.16 L 59.1 21.21 L 56.96 20.42 L 54.77 19.8 L 52.54 19.36 L 50.28 19.09 L 48 19 L 45.72 19.09 L 43.46 19.36 L 41.23 19.8 L 39.04 20.42 L 36.9 21.21 L 34.83 22.16 L 32.85 23.27 L 30.95 24.54 L 29.17 25.95 L 27.49 27.49 L 25.95 29.17 L 24.54 30.95 L 23.27 32.85 L 22.16 34.83 L 21.21 36.9 L 20.42 39.04 L 19.8 41.23 L 19.36 43.46 L 19.09 45.72 L 19 48 L 19.09 50.28 L 19.36 52.54 L 19.8 54.77 L 20.42 56.96 L 21.21 59.1 L 22.16 61.17 L 23.27 63.15 L 24.54 65.05 L 25.95 66.83 L 27.49 68.51 L 29.17 70.05 L 30.95 71.46 L 32.85 72.73 L 34.83 73.84 L 36.9 74.79 L 39.04 75.58 L 41.23 76.2 L 43.46 76.64 L 45.72 76.91 L 48 77 L 50.28 76.91 L 52.54 76.64 L 54.77 76.2 L 56.96 75.58 L 59.1 74.79 L 61.17 73.84 L 63.15 72.73 L 65.05 71.46" fill="none" stroke="#171717" stroke-width="12" stroke-linecap="round" stroke-linejoin="round"></path>
  <circle cx="65.05" cy="24.54" r="9" fill="#171717"></circle>
  <circle cx="19" cy="48" r="9" fill="#171717"></circle>
  <circle cx="65.05" cy="71.46" r="9" fill="#171717"></circle>
</svg>